<svg xmlns="http://www.w3.org/2000/svg" shape-rendering="geometricPrecision" viewBox="46.49 340.75 931.32 343.36">
  <metadata>null</metadata>

<path d=" M 47.243 427.417 C 48.156 427.457 47.749 427.459 48.465 427.432 C 48.103 427.981 48.714 428.623 49.109 429.046 C 50.237 430.257 51.374 431.449 52.608 432.553 C 57.939 437.319 62.964 442.429 68.117 447.386 C 84.04 462.703 100.019 477.947 115.994 493.207 C 120.503 497.515 125.045 501.767 129.413 506.223 C 131.288 508.137 133.222 511.249 135.582 512.503 C 135.591 512.639 135.601 512.775 135.61 512.912 C 128.727 512.151 121.442 512.705 114.503 512.703 C 101.336 512.7 88.17 512.741 75.003 512.728 C 68.671 512.722 62.337 512.756 56.005 512.705 C 53.216 512.682 49.49 512.039 46.836 512.888 C 46.462 510.721 46.792 508.21 46.79 506.004 C 46.786 501.337 46.796 496.67 46.786 492.003 C 46.756 477.335 46.775 462.668 46.803 448.001 C 46.813 442.881 46.848 437.762 46.865 432.642 C 46.868 431.653 46.451 427.961 47.243 427.417 Z" opacity="1" fill="rgb(117,81,174)" fill-rule="evenodd"/>
<path d=" M 46.836 512.888 C 49.49 512.039 53.216 512.682 56.005 512.705 C 62.337 512.756 68.671 512.722 75.003 512.728 C 88.17 512.741 101.336 512.7 114.503 512.703 C 121.442 512.705 128.727 512.151 135.61 512.912 C 135.271 513.761 134.411 514.296 133.771 514.924 C 132.013 516.65 130.29 518.414 128.51 520.119 C 122.798 525.591 117.038 531.01 111.307 536.46 C 99.765 547.433 88.29 558.492 76.685 569.416 C 67.724 577.852 58.54 586.197 49.902 594.956 C 49.207 595.656 48.75 596.331 48.224 597.155 C 48.335 598.327 52.091 598.233 53.099 598.221 C 58.401 598.157 63.703 598.161 69.005 598.151 C 84.337 598.121 99.671 598.167 115.003 598.227 C 119.67 598.245 124.336 598.26 129.003 598.266 C 131.162 598.268 133.865 597.847 135.94 598.474 C 135.509 606.108 135.801 613.854 135.823 621.501 C 135.858 634.171 135.867 646.841 135.893 659.51 C 135.906 665.508 135.94 671.508 135.861 677.505 C 135.844 678.875 135.8 680.248 135.856 681.617 C 135.884 682.279 136.281 683.333 136.04 683.952 C 114.384 662.884 92.431 642.075 70.925 620.85 C 65.341 615.338 59.725 609.842 53.952 604.527 C 52.166 602.882 50.419 601.204 48.657 599.536 C 48.048 598.959 47.119 598.479 46.857 597.646 C 46.615 579.773 46.776 561.883 46.765 544.007 C 46.759 533.709 46.11 523.159 46.836 512.888 Z" opacity="1" fill="rgb(53,37,100)" fill-rule="evenodd"/>
<path d=" M 135.985 427.024 C 135.975 427.151 135.965 427.278 135.955 427.404 C 119.162 427.066 102.31 427.429 85.508 427.435 C 73.19 427.439 60.767 426.952 48.465 427.432 C 47.749 427.459 48.156 427.457 47.243 427.417 C 47.252 425.287 51.302 422.577 52.789 421.237 C 58.425 416.161 63.827 410.8 69.219 405.469 C 84.348 390.51 99.772 375.825 115.045 361.015 C 119.534 356.662 124.019 352.305 128.51 347.955 C 130.933 345.608 133.782 343.401 135.866 340.752 C 136.415 342.22 135.775 344.884 135.774 346.492 C 135.771 351.495 135.762 356.498 135.781 361.502 C 135.837 376.335 135.806 391.169 135.835 406.003 C 135.844 410.504 135.887 415.004 135.856 419.504 C 135.84 421.873 135.442 424.72 135.985 427.024 Z" opacity="1" fill="rgb(53,38,99)" fill-rule="evenodd"/>
<path d=" M 135.61 512.912 C 135.601 512.775 135.591 512.639 135.582 512.503 C 136.251 512.331 136.428 512.281 136.321 511.569 C 138.068 511.953 140.843 508.289 142.109 507.09 C 147.382 502.093 152.557 496.997 157.821 491.991 C 172.693 477.85 187.372 463.515 202.332 449.478 C 207.947 444.209 213.535 438.894 218.985 433.455 C 220.914 431.53 223.345 429.846 225.068 427.768 C 224.61 426.692 221.493 427.209 220.495 427.233 C 215.67 427.35 210.827 427.249 206 427.247 C 188.332 427.238 170.665 427.32 152.997 427.358 C 148.725 427.368 144.426 427.24 140.159 427.465 C 138.955 427.529 136.592 427.239 136.135 428.44 C 136.064 428.083 136.061 427.754 135.955 427.404 C 135.965 427.278 135.975 427.151 135.985 427.024 C 136.5 427.397 136.946 427.38 137.34 426.86 C 139.513 423.255 143.488 420.19 146.461 417.213 C 152.629 411.037 158.823 404.881 165.153 398.869 C 178.717 385.988 192.168 372.977 205.495 359.855 C 211.996 353.454 219.07 347.582 225.257 340.875 C 225.523 341.03 225.455 341.984 225.409 342.309 C 225.231 343.555 225.252 344.851 225.253 346.112 C 225.254 351.408 225.276 356.704 225.269 362 C 225.252 376.334 225.261 390.668 225.255 405.002 C 225.253 412.368 224.503 420.19 225.419 427.499 C 224.824 431.7 225.285 436.259 225.284 440.501 C 225.28 449.001 225.274 457.502 225.269 466.002 C 225.263 476.335 225.261 486.668 225.258 497.002 C 225.257 502.244 224.766 507.75 225.333 512.961 C 224.237 512.297 221.777 512.778 220.503 512.764 C 216.002 512.714 211.5 512.746 207 512.744 C 190.5 512.736 173.999 512.728 157.499 512.76 C 152.376 512.77 147.241 512.866 142.119 512.781 C 140.669 512.757 137.765 511.919 137.486 514.001 C 135.054 512.937 135.953 518.641 135.957 520.002 C 135.979 527.22 136.058 534.442 136.044 541.658 C 136.019 554.101 136.087 566.543 136.084 578.996 C 136.082 585.418 136.471 592.098 135.94 598.474 C 133.865 597.847 131.162 598.268 129.003 598.266 C 124.336 598.26 119.67 598.245 115.003 598.227 C 99.671 598.167 84.337 598.121 69.005 598.151 C 63.703 598.161 58.401 598.157 53.099 598.221 C 52.091 598.233 48.335 598.327 48.224 597.155 C 48.75 596.331 49.207 595.656 49.902 594.956 C 58.54 586.197 67.724 577.852 76.685 569.416 C 88.29 558.492 99.765 547.433 111.307 536.46 C 117.038 531.01 122.798 525.591 128.51 520.119 C 130.29 518.414 132.013 516.65 133.771 514.924 C 134.411 514.296 135.271 513.761 135.61 512.912 Z" opacity="1" fill="rgb(117,82,174)" fill-rule="evenodd"/>
<path d=" M 136.135 428.44 C 136.592 427.239 138.955 427.529 140.159 427.465 C 144.426 427.24 148.725 427.368 152.997 427.358 C 170.665 427.32 188.332 427.238 206 427.247 C 210.827 427.249 215.67 427.35 220.495 427.233 C 221.493 427.209 224.61 426.692 225.068 427.768 C 223.345 429.846 220.914 431.53 218.985 433.455 C 213.535 438.894 207.947 444.209 202.332 449.478 C 187.372 463.515 172.693 477.85 157.821 491.991 C 152.557 496.997 147.382 502.093 142.109 507.09 C 140.843 508.289 138.068 511.953 136.321 511.569 C 135.717 506.487 136.168 501.122 136.143 496.006 C 136.092 485.672 136.104 475.337 136.104 465.003 C 136.104 457.002 136.099 449.001 136.081 441 C 136.072 436.924 135.568 432.47 136.135 428.44 Z" opacity="1" fill="rgb(53,37,100)" fill-rule="evenodd"/>
<path d=" M 225.333 512.961 C 224.804 519.897 225.282 527.044 225.28 534.004 C 225.275 547.837 225.255 561.669 225.269 575.502 C 225.274 580.668 225.269 585.834 225.279 590.999 C 225.284 593.411 225.76 596.102 225.348 598.476 C 225.294 598.384 225.239 598.293 225.185 598.201 C 224.79 597.217 224.086 597.158 223.363 596.501 C 221.516 594.825 219.815 592.968 217.995 591.257 C 212.325 585.927 206.717 580.502 201.17 575.042 C 188.242 562.318 174.863 550.059 161.846 537.426 C 156.269 532.014 150.695 526.607 145.039 521.278 C 142.523 518.908 140.148 516.187 137.486 514.001 C 137.765 511.919 140.669 512.757 142.119 512.781 C 147.241 512.866 152.376 512.77 157.499 512.76 C 173.999 512.728 190.5 512.736 207 512.744 C 211.5 512.746 216.002 512.714 220.503 512.764 C 221.777 512.778 224.237 512.297 225.333 512.961 Z" opacity="1" fill="rgb(54,37,100)" fill-rule="evenodd"/>
<path d=" M 225.185 598.201 C 225.239 598.293 225.294 598.384 225.348 598.476 C 224.423 605.764 225.24 613.652 225.235 621.002 C 225.224 635.835 225.23 650.668 225.234 665.502 C 225.235 669.999 225.277 674.499 225.195 678.996 C 225.164 680.672 225.455 682.471 225.235 684.117 C 203.63 662.2 180.888 641.371 158.902 619.826 C 153.562 614.592 148.135 609.448 142.806 604.204 C 141.53 602.948 140.206 601.741 138.942 600.476 C 138.683 600.217 137.654 599.289 137.694 598.893 C 137.802 597.799 141.715 598.282 142.506 598.276 C 147.673 598.235 152.839 598.231 158.007 598.23 C 173.008 598.227 188.009 598.158 203.01 598.154 C 210.272 598.153 217.976 598.948 225.185 598.201 Z" opacity="1" fill="rgb(117,82,173)" fill-rule="evenodd"/>
<path d=" M 298.304 484.934 C 305.917 485.079 313.724 484.17 321.317 484.985 C 321.113 489.583 321.21 494.388 321.46 498.986 C 322.255 498.639 322.769 496.998 323.246 496.289 C 324.436 494.521 326.141 492.973 327.695 491.532 C 333.803 485.866 343.623 482.238 351.994 484.2 C 351.802 489.572 352.162 495.104 352.201 500.502 C 352.222 503.365 351.679 506.862 352.24 509.65 C 349.789 509.86 347.199 509.419 344.724 509.434 C 339.101 509.466 333.081 510.402 328.539 513.969 C 322.286 518.879 321.789 526.755 321.774 534.045 C 321.747 547.088 321.112 560.34 321.767 573.361 C 319.979 573.707 317.835 573.403 316.004 573.396 C 310.271 573.375 304.081 572.713 298.397 573.486 C 297.925 569.235 298.258 564.78 298.26 560.504 C 298.264 552.837 298.261 545.171 298.261 537.504 C 298.261 520.036 297.513 502.381 298.304 484.934 Z" opacity="1" fill="rgb(54,39,98)" fill-rule="evenodd"/>
<path d=" M 358.445 523.612 C 359.7 514.377 362.116 505.366 368.539 498.256 C 385.201 479.81 417.311 478.362 435.428 495.63 C 446.717 506.39 448.37 520.808 447.993 535.534 C 447.522 536.107 444.797 535.723 444.001 535.722 C 439.833 535.72 435.665 535.724 431.497 535.737 C 420.497 535.769 409.498 535.77 398.498 535.77 C 393.252 535.77 387.04 534.907 381.915 536.065 C 383.029 539.953 383.522 543.502 385.995 546.885 C 392.283 555.487 404.658 557.488 414.224 553.493 C 416.43 552.572 418.677 550.991 420.324 549.26 C 421.473 548.052 422.25 546.462 423.576 545.44 C 428.375 545.253 433.202 545.322 438.004 545.326 C 440.752 545.329 443.587 545.081 446.317 545.381 C 445.709 548.633 444.228 551.7 442.598 554.552 C 430.645 575.467 401.251 579.862 380.83 569.327 C 363.872 560.579 356.962 541.872 358.445 523.612 Z M 382.943 518.585 C 382.814 519.299 382.738 520.022 382.612 520.738 C 384.075 521.103 385.987 520.762 387.503 520.747 C 390.67 520.715 393.838 520.729 397.005 520.722 C 403.006 520.707 409.007 520.654 415.008 520.667 C 418.246 520.675 421.643 520.956 424.863 520.636 C 425.313 519.187 423.772 516.734 423.126 515.537 C 420.447 510.57 416.721 506.688 411.353 504.696 C 402.434 501.386 391.693 503.592 385.97 511.505 C 384.41 513.662 383.669 516.077 382.943 518.585 Z" opacity="1" fill="rgb(54,40,97)" fill-rule="evenodd"/>
<path d=" M 458.107 545.18 C 463.404 545.034 468.705 545.01 474.007 545.019 C 475.973 545.022 478.73 544.478 480.54 545.301 C 481.383 555.421 494.223 558.013 502.254 556.36 C 506.649 555.456 512.512 553.277 511.593 547.667 C 511.121 544.787 508.715 542.787 506.169 541.671 C 501.803 539.758 497.003 538.921 492.38 537.867 C 481.149 535.306 467.096 532.296 462.3 520.31 C 461.044 517.169 460.696 514.058 460.474 510.719 C 460.262 507.525 460.674 504.176 461.765 501.163 C 465.717 490.25 477.738 485.105 488.513 484.002 C 504.073 482.408 524.338 485.771 530.63 502.417 C 531.987 506.006 532.354 509.677 532.434 513.468 C 527.874 513.866 523.081 513.428 518.503 513.38 C 515.846 513.352 512.721 513.799 510.135 513.237 C 508.231 505.411 501.533 501.775 493.75 502.038 C 488.052 502.23 481.32 505.238 483.516 512.158 C 485.686 518.997 496.547 519.524 502.359 520.684 C 514.043 523.016 527.676 525.676 532.989 537.777 C 533.94 539.943 534.276 542.346 534.53 544.676 C 534.82 547.339 534.584 550.276 533.989 552.888 C 529.672 571.849 507.174 575.779 490.765 574.331 C 487.399 574.033 484.068 573.482 480.818 572.545 C 476.411 571.276 472.119 569.295 468.506 566.452 C 461.703 561.099 459.614 553.258 458.107 545.18 Z" opacity="1" fill="rgb(54,40,98)" fill-rule="evenodd"/>
<path d=" M 548.327 484.896 C 556.007 484.798 563.865 484.319 571.536 484.808 C 571.287 488.818 571.603 492.97 571.605 496.997 C 571.609 505.664 571.602 514.33 571.6 522.996 C 571.598 530.178 570.498 538.394 573.107 545.232 C 577.968 557.972 595.822 556.68 601.945 545.702 C 605.38 539.544 604.843 532.769 604.825 525.971 C 604.801 516.982 604.813 507.993 604.824 499.004 C 604.829 494.521 604.173 489.404 605.017 485.003 C 612.399 484.097 620.622 484.43 628.044 484.851 C 628.726 506.697 628.108 528.64 628.172 550.501 C 628.188 556.167 628.209 561.833 628.19 567.499 C 628.185 569.011 628.243 570.536 628.189 572.046 C 628.178 572.341 628.249 573.143 628.049 573.402 C 620.754 573.169 613.294 573.121 606.001 573.348 C 605.5 572.815 605.771 571.251 605.757 570.507 C 605.704 567.765 605.868 564.942 605.587 562.215 C 604.828 562.456 603.779 564.028 603.222 564.71 C 601.949 566.268 600.56 567.696 598.982 568.948 C 594.7 572.347 589.27 573.982 583.901 574.526 C 570.293 575.904 555.401 570.097 550.434 556.454 C 547.318 547.895 548.166 537.957 548.14 529.009 C 548.097 514.422 547.849 499.798 548.113 485.215 C 548.184 485.109 548.256 485.002 548.327 484.896 Z" opacity="1" fill="rgb(54,39,98)" fill-rule="evenodd"/>
<path d=" M 647.309 484.921 C 652.705 484.855 658.104 484.77 663.505 484.765 C 665.155 484.763 668.401 484.152 669.845 484.932 C 669.711 488.637 669.897 492.396 670.02 496.101 C 670.967 495.561 671.571 493.984 672.34 493.159 C 674.236 491.125 676.515 489.136 678.889 487.681 C 687.803 482.218 701.132 481.452 710.527 486.203 C 713.849 487.883 716.852 490.406 719.185 493.286 C 719.893 494.16 721.369 497.286 722.375 497.499 C 726.042 493.827 729.17 489.602 733.919 487.159 C 749.665 479.058 770.974 483.17 778.544 500.223 C 781.619 507.148 781.42 514.723 781.435 522.136 C 781.453 531.428 781.456 540.72 781.478 550.012 C 781.491 555.346 781.496 560.679 781.479 566.013 C 781.471 568.431 781.916 571.072 781.421 573.448 C 773.816 573.455 766.011 572.938 758.427 573.474 C 757.648 572.997 758.091 570.385 758.089 569.498 C 758.082 565.664 758.069 561.83 758.07 557.995 C 758.072 548.737 758.075 539.479 758.074 530.221 C 758.073 524.383 758.502 518.084 756.291 512.562 C 753.072 504.523 742.801 501.603 735.172 505.196 C 731.541 506.906 729.14 509.87 727.647 513.534 C 725.088 519.814 726.111 527.371 726.109 533.999 C 726.106 547.097 726.593 560.359 725.913 573.433 C 721.023 573.4 716.126 573.453 711.233 573.449 C 708.349 573.447 705.338 573.188 702.472 573.521 C 701.543 568.986 702.248 563.632 702.238 559.005 C 702.217 549.338 702.196 539.672 702.184 530.005 C 702.176 523.272 702.77 515.816 699.052 509.86 C 694.255 502.172 682.38 502.27 675.886 507.679 C 674.005 509.247 672.76 511.637 671.895 513.886 C 669.319 520.585 670.356 528.456 670.351 535.503 C 670.345 543.837 670.365 552.171 670.366 560.505 C 670.367 564.767 670.088 569.147 670.361 573.393 C 662.734 573.265 654.941 573.132 647.327 573.525 C 646.958 571.407 647.184 569.154 647.179 567.006 C 647.17 562.84 647.163 558.674 647.149 554.507 C 647.104 541.341 647.113 528.173 647.148 515.006 C 647.166 508.173 647.163 501.339 647.181 494.506 C 647.189 491.536 646.562 487.787 647.309 484.921 Z" opacity="1" fill="rgb(55,39,98)" fill-rule="evenodd"/>
<path d=" M 795.465 545.608 C 795.889 542.615 796.265 539.787 797.551 537.003 C 801.025 529.48 808.047 525.388 815.733 523.203 C 828.033 519.706 841.364 521.183 853.996 520.94 C 854.511 520.376 854.148 517.986 854.098 517.223 C 853.852 513.409 853.271 509.084 850.083 506.51 C 843.692 501.348 831.431 500.767 825.579 507.175 C 823.695 509.237 823.587 511.707 822.893 514.181 C 815.059 514.366 806.824 514.302 798.994 513.873 C 797.874 512.912 799.413 508.719 799.778 507.426 C 801.718 500.56 806.312 494.584 812.194 490.621 C 821.351 484.451 832.935 482.979 843.752 483.688 C 850.763 484.148 857.774 485.551 863.793 489.391 C 865.8 490.672 867.838 492.163 869.477 493.899 C 877.649 502.555 876.749 513.44 876.758 524.501 C 876.772 540.779 876.485 557.084 876.735 573.357 C 875.231 573.777 873.083 573.398 871.503 573.38 C 867.836 573.338 864.167 573.34 860.5 573.335 C 858.65 573.333 855.857 573.89 854.165 573.176 C 854.116 571.121 854.117 569.058 854.169 567.003 C 854.194 566.019 854.47 564.64 854.151 563.712 C 851.248 566.749 848.459 569.37 844.613 571.19 C 828.373 578.877 800.98 575.026 796.257 554.854 C 795.561 551.883 795.229 548.654 795.465 545.608 Z M 819.427 544.071 C 817.311 552.155 825.115 556.392 831.95 556.644 C 841.64 557.002 850.854 552.051 853.322 542.325 C 853.763 540.588 854.188 538.555 854.005 536.761 C 851.171 536.007 847.466 536.58 844.532 536.572 C 835.994 536.546 823.633 534.722 819.427 544.071 Z" opacity="1" fill="rgb(55,40,98)" fill-rule="evenodd"/>
<path d=" M 885.888 573.177 C 892.976 563.484 899.932 553.667 907.094 544.019 C 909.337 540.998 911.515 537.918 913.719 534.869 C 915.058 533.018 916.914 531.056 917.808 528.955 C 917.508 527.566 916.084 526.077 915.3 524.904 C 913.183 521.736 910.991 518.628 908.8 515.511 C 901.624 505.305 894.568 494.914 886.885 485.09 C 889.87 484.196 893.885 484.828 897.002 484.843 C 902.873 484.871 909.177 484.134 914.995 484.956 C 916.954 488.653 919.616 492.119 921.924 495.611 C 925.243 500.632 928.491 505.725 931.66 510.833 C 932.308 510.485 932.702 509.122 933.091 508.505 C 934.187 506.765 935.365 505.079 936.44 503.324 C 940.165 497.246 943.986 490.768 948.4 485.171 C 951.27 484.323 955.027 484.905 958.004 484.903 C 963.973 484.899 970.104 484.46 976.053 484.822 C 974.219 488.646 970.906 492.037 968.463 495.494 C 963.229 502.903 957.876 510.231 952.712 517.688 C 950.247 521.246 947.255 524.673 945.14 528.44 C 945.465 529.814 946.741 530.937 947.561 532.069 C 949.217 534.354 950.907 536.628 952.609 538.879 C 958.609 546.817 964.496 554.874 970.196 563.03 C 972.059 565.695 974.044 568.276 975.887 570.953 C 976.131 571.308 977.883 573.54 977.811 573.598 C 972.072 573.609 966.269 573.472 960.505 573.466 C 957.069 573.462 953.507 573.718 950.089 573.437 C 948.248 571.735 947.03 568.877 945.625 566.796 C 942.492 562.156 939.283 557.569 936.167 552.919 C 935.026 551.216 933.871 549.464 932.609 547.848 C 932.191 547.313 931.77 546.288 931.1 546.425 C 927.793 552.976 922.807 558.989 918.744 565.097 C 917.093 567.579 915.53 571.616 913.199 573.463 C 910.322 574.026 906.938 573.536 904.002 573.535 C 897.93 573.532 891.849 573.523 885.78 573.556 C 885.816 573.43 885.852 573.303 885.888 573.177 Z" opacity="1" fill="rgb(55,40,98)" fill-rule="evenodd"/>

</svg>